<svg xmlns="http://www.w3.org/2000/svg" width="20.354" height="21.352" viewBox="0 0 20.354 21.352">
  <g id="лпа" transform="translate(-1347 -69)" fill="none">
    <path d="M1360.6,84.3a8.5,8.5,0,1,1,1.257-1.157l5.5,5.5-.5.5.5.5-.707.706Z" stroke="none"/>
    <path d="M 1355.499877929688 84.00039672851563 C 1356.918334960938 84.00039672851563 1358.265747070313 83.55191802978516 1359.396484375 82.70355224609375 L 1359.92236328125 82.30890655517578 L 1360.359497070313 81.81734466552734 C 1361.417724609375 80.62739562988281 1362.00048828125 79.09413146972656 1362.00048828125 77.49992370605469 C 1362.00048828125 73.91602325439453 1359.084350585938 71.00028991699219 1355.499877929688 71.00028991699219 C 1351.916015625 71.00028991699219 1349.000366210938 73.91602325439453 1349.000366210938 77.49992370605469 C 1349.000366210938 81.08428955078125 1351.916015625 84.00039672851563 1355.499877929688 84.00039672851563 M 1366.646484375 90.35281372070313 L 1360.596801757813 84.30323791503906 C 1359.1767578125 85.36881256103516 1357.411865234375 86.00039672851563 1355.499877929688 86.00039672851563 C 1350.805541992188 86.00039672851563 1347.000366210938 82.19429016113281 1347.000366210938 77.49992370605469 C 1347.000366210938 72.80549621582031 1350.805541992188 69.00028991699219 1355.499877929688 69.00028991699219 C 1360.1943359375 69.00028991699219 1364.00048828125 72.80549621582031 1364.00048828125 77.49992370605469 C 1364.00048828125 79.66718292236328 1363.189331054688 81.64486694335938 1361.85400390625 83.14639282226563 L 1367.353881835938 88.64550018310547 L 1366.853393554688 89.14591979980469 L 1367.353881835938 89.64628601074219 L 1366.646484375 90.35281372070313 Z" stroke="none" fill="#fff"/>
  </g>
</svg>
