<svg xmlns="http://www.w3.org/2000/svg" width="49.677" height="56.238"><g fill="none" opacity=".871"><path d="M33.441 39.8a21.64 21.64 0 112.771-2.111l13.46 15.784-.856.113.86.988-1.928 1.665z"/><path d="M21.72 41.239c3.781 0 7.46-1.08 10.64-3.123l1.335-.858 1.182-1.06a19.495 19.495 0 006.465-13.187 19.422 19.422 0 00-.998-7.724 19.537 19.537 0 00-3.766-6.519 19.621 19.621 0 00-5.946-4.638 19.627 19.627 0 00-7.54-2.08A19.654 19.654 0 008.295 7.24 19.514 19.514 0 002.05 20.228a19.421 19.421 0 001 7.724 19.541 19.541 0 003.765 6.52 19.62 19.62 0 005.945 4.638 19.629 19.629 0 007.54 2.08c.471.033.95.05 1.42.05m26.03 14.999L33.44 39.798a21.638 21.638 0 01-13.283 3.386C8.206 42.337-.794 31.996.056 20.085.867 8.698 10.39 0 21.67 0a21.6 21.6 0 011.563.056c11.952.846 20.953 11.187 20.103 23.097a21.52 21.52 0 01-7.125 14.534l13.46 15.784-.855.114.86.988-1.928 1.665z" fill="#34a853"/></g></svg>