<svg xmlns="http://www.w3.org/2000/svg" width="49.677" height="56.238" viewBox="0 0 49.677 56.238">
  <g id="поиск" fill="none" opacity="0.871">
    <path d="M33.441,39.8a21.64,21.64,0,1,1,2.771-2.111l13.46,15.784-.856.113.86.988-1.928,1.665Z" stroke="none"/>
    <path d="M 21.72052574157715 41.23894882202148 C 25.50124931335449 41.23894882202148 29.1803035736084 40.15906143188477 32.35997009277344 38.11600494384766 L 33.69542694091797 37.25795364379883 L 34.87680435180664 36.19833755493164 C 38.68313598632813 32.78439331054688 40.9793586730957 28.10095024108887 41.34247207641602 23.01072883605957 C 41.53097152709961 20.36894989013672 41.19485855102539 17.77039527893066 40.34352493286133 15.2872838973999 C 39.52080535888672 12.88739490509033 38.25380325317383 10.69411754608154 36.5777473449707 8.768450736999512 C 34.90124893188477 6.842228412628174 32.90074920654297 5.281617164611816 30.63180351257324 4.130061626434326 C 28.28319358825684 2.938005924224854 25.74674797058105 2.238339424133301 23.09258270263672 2.050506114959717 C 22.62052726745605 2.017005920410156 22.14230537414551 2.000005960464478 21.67119407653809 2.000005960464478 C 16.70180511474609 2.000005960464478 11.95135974884033 3.861283779144287 8.294915199279785 7.241061687469482 C 4.623026847839355 10.63511753082275 2.405359983444214 15.2470064163208 2.050471067428589 20.2272834777832 C 1.861971139907837 22.86939430236816 2.198026657104492 25.46811676025391 3.049248933792114 27.95128440856934 C 3.871971130371094 30.35117340087891 5.13886022567749 32.54444885253906 6.814804553985596 34.47011566162109 C 8.491137504577637 36.39633941650391 10.49152660369873 37.95695114135742 12.76041507720947 39.10856246948242 C 15.10891532897949 40.30067443847656 17.64535903930664 41.00045013427734 20.29936027526855 41.18850708007813 C 20.77136039733887 41.22200775146484 21.24952697753906 41.23894882202148 21.72052574157715 41.23894882202148 M 47.74924850463867 56.23800659179688 L 33.44108200073242 39.79861831665039 C 30.04292488098145 41.98205947875977 26.00885391235352 43.23896408081055 21.72053527832031 43.23897552490234 C 21.20312118530273 43.23897552490234 20.68206405639648 43.22068023681641 20.15791511535645 43.18350601196289 C 8.205915451049805 42.33656311035156 -0.7940844297409058 31.9956169128418 0.05552665516734123 20.08500671386719 C 0.867003321647644 8.697933197021484 10.39041328430176 1.426866310794139e-05 21.67116546630859 1.426866310794139e-05 C 22.18893623352051 1.426866310794139e-05 22.70963287353516 0.01829946972429752 23.23413848876953 0.05550602078437805 C 35.18613815307617 0.9015060067176819 44.18702697753906 11.24339485168457 43.3374137878418 23.15306091308594 C 42.92285919189453 28.9640064239502 40.23930358886719 34.07522964477539 36.21219253540039 37.68722915649414 L 49.67252731323242 53.47139358520508 L 48.81680297851563 53.58456039428711 L 49.67702484130859 54.57300567626953 L 47.74924850463867 56.23800659179688 Z" stroke="none" fill="#34a853"/>
  </g>
</svg>
